<svg width="20" height="22" viewBox="0 0 20 22" fill="none" xmlns="http://www.w3.org/2000/svg">
<path fill-rule="evenodd" clip-rule="evenodd" d="M0 8.25V17.05H2.75C3.0389 17.05 3.32498 17.1069 3.59192 17.2175C3.85879 17.328 4.10137 17.4901 4.3056 17.6944C4.50991 17.8987 4.67198 18.1412 4.78256 18.4081C4.89306 18.675 4.95 18.9611 4.95 19.25V22H11.55L19.8 13.75V4.95H17.05C16.7611 4.95 16.475 4.8931 16.2081 4.78254C15.9412 4.67198 15.6986 4.50992 15.4944 4.30564C15.2901 4.10135 15.128 3.85881 15.0174 3.5919C14.9069 3.32499 14.85 3.03892 14.85 2.75V0H8.25L0 8.25ZM9.35 16.5H5.5V10.45L10.45 5.5H14.3V11.55L9.35 16.5Z" fill="white"/>
</svg>
